<?xml version="1.0" encoding="UTF-8"?>
<svg width="1243px" height="310px" viewBox="0 0 1243 310" version="1.1" xmlns="http://www.w3.org/2000/svg" xmlns:xlink="http://www.w3.org/1999/xlink">
    <!-- Generator: Sketch 52.6 (67491) - http://www.bohemiancoding.com/sketch -->
    <title>Group</title>
    <desc>Created with Sketch.</desc>
    <g id="Page-1" stroke="none" stroke-width="1" fill="none" fill-rule="evenodd">
        <g id="Group" fill="#1D3335">
            <text id="unchained.shop" font-family="RobotoMono-Medium, Roboto Mono" font-size="110" font-weight="400">
                <tspan x="325" y="287">unchained.shop</tspan>
            </text>
            <text id="powered-by" font-family="RobotoMono-Medium, Roboto Mono" font-size="80" font-weight="400">
                <tspan x="327" y="161">powered by</tspan>
            </text>
            <path d="M55,92.9787611 L75,81 C70.9990549,88.4994095 70.9990549,97.5005905 75,105 L55,92.9787611 Z M5.98011767,74 C3.33996078,86.5322299 3.33996078,99.4677701 5.98011767,112 L38,93 L5.98011767,74 Z M54.4870099,162.386364 L54.4870099,118 L7,118 C12.4462426,137.064462 23.8696954,153.902873 39.6074634,166.064091 L28.9792159,168.727273 L97,211 L97,151.818182 L54.4870099,162.386364 Z M97,118 L135.845,142.108889 L97,151.777778 L165,194 L165,118 L97,118 Z M29,227.857143 L97,270 L97,211 L29,227.857143 Z M97,210.857143 L165,253 L165,194 L97,210.857143 Z M97,270 L165,287 L165,253 L97,270 Z M29,287 L97,287 L97,270 L29,287 Z M0,198.5 C0,214.7924 13.4314575,228 30,228 L30,169 C13.4314575,169 0,182.2076 0,198.5 Z M0,257.5 C0,273.7924 13.4314575,287 30,287 L30,228 C13.4314575,228 0,241.2076 0,257.5 Z M232.478261,118 L165,134.857143 L232.478261,177 C248.782668,177 262,163.7924 262,147.5 C262,131.2076 248.782668,118 232.478261,118 Z M232.478261,177 L165,193.857143 L232.478261,236 C248.782667,236 262,222.7924 262,206.5 C262,190.2076 248.782667,177 232.478261,177 Z M232.636364,236 L165,253 L232.636364,287 C246.644313,287 258,275.583261 258,261.5 C258,247.416739 246.644313,236 232.636364,236 Z M96.7407922,0 C54.0535094,0 18.0639333,28.349375 7,67 L164.565671,67 L190,41.875 C190,41.875 148.838777,0 96.7407922,0 Z M131,29.5 C131,36.4035594 125.403559,42 118.5,42 C111.596441,42 106,36.4035594 106,29.5 C106,22.5964406 111.596441,17 118.5,17 C121.815206,17 124.99463,18.3169605 127.338835,20.6611652 C129.683039,23.00537 131,26.1847939 131,29.5 Z" id="Shape" fill-rule="nonzero"></path>
        </g>
    </g>
</svg>